<?xml version="1.0" encoding="UTF-8" standalone="no"?>
<svg
   xmlns:dc="http://purl.org/dc/elements/1.1/"
   xmlns:cc="http://creativecommons.org/ns#"
   xmlns:rdf="http://www.w3.org/1999/02/22-rdf-syntax-ns#"
   xmlns:svg="http://www.w3.org/2000/svg"
   xmlns="http://www.w3.org/2000/svg"
   viewBox="0 0 640 640"
   height="640"
   width="640"
   xml:space="preserve"
   version="1.1"
   id="svg2"><metadata
     id="metadata8"><rdf:RDF><cc:Work
         rdf:about=""><dc:format>image/svg+xml</dc:format><dc:type
           rdf:resource="http://purl.org/dc/dcmitype/StillImage" /></cc:Work></rdf:RDF></metadata><defs
     id="defs6"><clipPath
       id="clipPath16"
       clipPathUnits="userSpaceOnUse"><path
         id="path18"
         d="M 0,0 50,0 50,50 0,50 0,0 Z" /></clipPath><clipPath
       id="clipPath26"
       clipPathUnits="userSpaceOnUse"><path
         id="path28"
         d="M 0,0 50,0 50,50 0,50 0,0 Z" /></clipPath></defs><g
     transform="scale(0.3,0.3)"
     id="g10"><g
       transform="scale(42.666667,42.666667)"
       id="g12"><g
         clip-path="url(#clipPath16)"
         id="g14"><path
           id="path20"
           style="fill:none;stroke:#000000;stroke-width:2;stroke-linecap:round;stroke-linejoin:round;stroke-miterlimit:10;stroke-dasharray:none;stroke-opacity:1"
           d="m 42,10 c 0,0 -29.396999,0 -34,0 -3.0760002,0 -5,3 -5,5 L 3,35.384003 C 3,37.933998 5.066,40 7.6160002,40 L 42.384003,40 C 44.932999,40 47,37.933998 47,35.383999 L 47,14.846 C 47,12.299 44.549,10 42,10 Z" /></g></g><g
       transform="scale(42.666667,42.666667)"
       id="g22"><g
         clip-path="url(#clipPath26)"
         id="g24"><path
           id="path30" class="ignoreColor"
           style="fill:#000000;fill-opacity:1;fill-rule:nonzero;stroke:none"
           d="m 3,16 44,0 0,5 -44,0 0,-5 z" /></g></g></g></svg>