<?xml version="1.0" encoding="UTF-8" standalone="no"?>
<svg
   xmlns:dc="http://purl.org/dc/elements/1.1/"
   xmlns:cc="http://creativecommons.org/ns#"
   xmlns:rdf="http://www.w3.org/1999/02/22-rdf-syntax-ns#"
   xmlns:svg="http://www.w3.org/2000/svg"
   xmlns="http://www.w3.org/2000/svg"
   viewBox="0 0 640 640"
   height="640"
   width="640"
   xml:space="preserve"
   version="1.1"
   id="svg2"><metadata
     id="metadata8"><rdf:RDF><cc:Work
         rdf:about=""><dc:format>image/svg+xml</dc:format><dc:type
           rdf:resource="http://purl.org/dc/dcmitype/StillImage" /></cc:Work></rdf:RDF></metadata><defs
     id="defs6"><clipPath
       id="clipPath16"
       clipPathUnits="userSpaceOnUse"><path
         id="path18"
         d="M 0,0 50,0 50,50 0,50 0,0 Z" /></clipPath><clipPath
       id="clipPath26"
       clipPathUnits="userSpaceOnUse"><path
         id="path28"
         d="M 0,0 50,0 50,50 0,50 0,0 Z" /></clipPath></defs><g
     transform="scale(0.3,0.3)"
     id="g10"><g
       transform="scale(42.666667,42.666667)"
       id="g12"><g
         clip-path="url(#clipPath16)"
         id="g14"><path
           id="path20"
           style="fill:none;stroke:#000000;stroke-width:2;stroke-linecap:round;stroke-linejoin:miter;stroke-miterlimit:10;stroke-dasharray:none;stroke-opacity:1"
           d="m 46,15 0,-4 C 46,9.8959999 45.104,9 44,9 44,9 19.351999,9 18,9 16.531,9 15.516,5 14,5 L 3,5 C 1.896,5 1,5.8959999 1,7 l 0,4 0,29 0,4 c 0,1.104 0.896,2 2,2 l 39,0 c 1.104,0 2,-0.896 2,-2" /></g></g><g
       transform="scale(42.666667,42.666667)"
       id="g22"><g
         clip-path="url(#clipPath26)"
         id="g24"><path
           id="path30"
           style="fill:none;stroke:#000000;stroke-width:2;stroke-linecap:round;stroke-linejoin:miter;stroke-miterlimit:10;stroke-dasharray:none;stroke-opacity:1"
           d="M 1,44 6,17 c 0,-1.104 0.8959999,-2 2,-2 l 39,0 c 1.104,0 2,0.896 2,2 l -5,27" /></g></g></g></svg>