<?xml version="1.0" ?>
<!DOCTYPE svg  PUBLIC '-//W3C//DTD SVG 1.1//EN'  'http://www.w3.org/Graphics/SVG/1.1/DTD/svg11.dtd'>
<svg height="24px" style="enable-background:new 0 0 32 24;" version="1.1" viewBox="0 0 32 24" width="32px" xml:space="preserve" xmlns="http://www.w3.org/2000/svg" xmlns:xlink="http://www.w3.org/1999/xlink">
<g id="folder_x5F_plus"><g><g><path d="M12,0H2C0.9,0,0,0.9,0,2v4h32V4c0-1.1-0.899-2-2-2H15L12,0z" style="fill:#D89C45;"/></g><g><g><circle cx="25" cy="17" r="7" style="fill:#84BD5A;"/></g><g><path d="M27,16c-0.001,0-0.001,0-0.002,0h-1v-1l0,0l0,0c0-0.553-0.448-1-1-1c-0.553,0-1,0.447-1,1l0,0      l0,0v1h-0.995c-0.001,0-0.002,0-0.003,0c-0.552,0-1,0.447-1,1s0.448,1,1,1l0,0h0.998v1l0,0c0,0.553,0.447,1,1,1      c0.552,0,1-0.447,1-1l0,0v-1H27l0,0c0.553,0,1-0.447,1-1S27.553,16,27,16z" style="fill:#FFFFFF;"/></g></g><g><g><path d="M16,17c0-4.97,4.029-9,9-9c2.829,0,5.351,1.309,7,3.35V6c0-1.1-0.899-2-2-2H2C0.9,4,0,4.9,0,6v16      c0,1.1,0.9,2,2,2h17.35C17.308,22.35,16,19.828,16,17z" style="fill:#F7B84E;"/>
</g></g></g></g><g id="Layer_1"/></svg>

