<?xml version="1.0" ?><!DOCTYPE svg  PUBLIC '-//W3C//DTD SVG 1.1//EN'  'http://www.w3.org/Graphics/SVG/1.1/DTD/svg11.dtd'><svg enable-background="new 0 0 128 128" id="Слой_1" version="1.1" viewBox="0 0 128 128" xml:space="preserve" xmlns="http://www.w3.org/2000/svg" xmlns:xlink="http://www.w3.org/1999/xlink"><g><path d="   M109,104.909l-8.555-8.674c-0.421-0.426-1.108-0.431-1.534-0.011l-2.703,2.666c-0.426,0.421-0.431,1.108-0.01,1.534l8.66,8.576   L109,104.909z" fill="none" stroke="#323638" stroke-linecap="round" stroke-linejoin="round" stroke-miterlimit="10" stroke-width="2"/><g><g><path d="M92.5,108h-57c-1.654,0-3-1.346-3-3V23c0-1.654,1.346-3,3-3h57c1.654,0,3,1.346,3,3v39.713     c0.535,0.344,1.057,0.707,1.561,1.092C97.32,63.625,97.5,63.34,97.5,63V23c0-2.757-2.243-5-5-5h-57c-2.757,0-5,2.243-5,5v82     c0,2.757,2.243,5,5,5h57c1.695,0,3.19-0.852,4.095-2.146l-1.461-1.447C94.627,107.35,93.643,108,92.5,108z" fill="#323638"/><path d="M86.5,28h-45c-0.552,0-1,0.448-1,1s0.448,1,1,1h45c0.552,0,1-0.448,1-1S87.052,28,86.5,28z" fill="#323638"/><path d="M86.5,38h-45c-0.552,0-1,0.448-1,1s0.448,1,1,1h45c0.552,0,1-0.448,1-1S87.052,38,86.5,38z" fill="#323638"/><path d="M86.5,48h-45c-0.552,0-1,0.448-1,1s0.448,1,1,1h45c0.552,0,1-0.448,1-1S87.052,48,86.5,48z" fill="#323638"/><path d="M86.5,58h-45c-0.552,0-1,0.448-1,1s0.448,1,1,1h45c0.552,0,1-0.448,1-1S87.052,58,86.5,58z" fill="#323638"/></g><path d="    M82.863,64c-10.169,0-18.441,8.273-18.441,18.441s8.273,18.441,18.441,18.441s18.441-8.273,18.441-18.441S93.032,64,82.863,64z" fill="none" stroke="#323638" stroke-linecap="round" stroke-linejoin="round" stroke-miterlimit="10" stroke-width="2"/></g></g></svg>