<?xml version="1.0" ?><svg enable-background="new 0 0 256 256" id="Layer_1" version="1.1" viewBox="0 0 256 256" xml:space="preserve" xmlns="http://www.w3.org/2000/svg" xmlns:xlink="http://www.w3.org/1999/xlink"><g><path d="M183.768,45H149v53H63V45h-7.29C49.767,45,45,50.161,45,56.104v144.199C45,206.249,49.767,211,55.71,211h144.202   c5.941,0,11.088-4.751,11.088-10.696V72.247L183.768,45z M193,192.619c0,2.972-2.409,5.381-5.381,5.381H68.381   c-2.972,0-5.381-2.409-5.381-5.381v-62.238c0-2.972,2.409-5.381,5.381-5.381h119.238c2.972,0,5.381,2.409,5.381,5.381V192.619z"/><rect height="36" width="19" x="118" y="53"/><rect height="12" width="108" x="74" y="142"/><rect height="12" width="108" x="74" y="170"/></g><g id="Arquivo"/><g id="Arrow_2"/><g id="Edit"/><g id="Scissors"/><g id="Delete"/></svg>